# xmcd
#
# Track frame offsets:
#	150
#	15047
#	40032
#	48421
#	52045
#	71007
#	86204
#	106581
#	117238
#	128473
#	137792
#	152605
#	161311
#	184401
#	202883
#	221269
#	237197
#	258771
#	269070
#	285533
#	303994
#	306832
#
# Disc length: 4351 seconds
#
# Revision: 1
# Processed by: cddbd v1.5.2PL0 Copyright (c) Steve Scherf et al.
# Submitted via: audiograbber 1.83.01
#
DISCID=2510fd16
DTITLE=Afrika - Tradicni hudba
DYEAR=1900
DGENRE=Folklore
TTITLE0=Kalabash
TTITLE1=Lparao
TTITLE2=Huis Toe
TTITLE3=Ek
TTITLE4=Toyemba Noel
TTITLE5=Fitina
TTITLE6=Unto Us A Child Is Born
TTITLE7=Eyioler
TTITLE8=Toneelspel
TTITLE9=Emosie Musiek
TTITLE10=Afrikaans Karakter
TTITLE11=Foggy Day
TTITLE12=Feeling Free
TTITLE13=Your Puzzlink Eyes
TTITLE14=Dusty
TTITLE15=Sun Fire
TTITLE16=Song Of The Unknown Man
TTITLE17=Desert Moutain
TTITLE18=Across Me
TTITLE19=Rhythms Of The Burning Sun
TTITLE20=Yeah!
TTITLE21=In The Middle Of Nowhere
EXTD=
EXTT0=
EXTT1=
EXTT2=
EXTT3=
EXTT4=
EXTT5=
EXTT6=
EXTT7=
EXTT8=
EXTT9=
EXTT10=
EXTT11=
EXTT12=
EXTT13=
EXTT14=
EXTT15=
EXTT16=
EXTT17=
EXTT18=
EXTT19=
EXTT20=
EXTT21=
PLAYORDER=
